<?xml version="1.0" encoding="UTF-8"?>
<svg id="Layer_1" data-name="Layer 1" xmlns="http://www.w3.org/2000/svg" viewBox="0 0 1056 992">
  <defs>
    <style>
      .cls-1 {
        fill: #fff;
      }
    </style>
  </defs>
  <path class="cls-1" d="M564.26,430.02c.09-.29.06-.55-.15-.79-.3-.33-2.82-1.57-3.27-1.49-20.06,9.61-34.98,27.94-40.34,49.57-8.17,32.99,6.48,69.89,37.22,85.27.65.33,2.67,1.4,3.25,1.41.4,0,2.92-1.1,3.14-1.35s.23-.5.16-.79c-4.48-1.75-8.76-4.15-12.68-6.92-36.79-25.98-40.09-81.13-7.27-111.83,5.8-5.43,12.59-10.04,19.95-13.08ZM561.31,442.47c3.25-2.98,6.84-5.64,10.6-7.95v-.55s-2.84-1.75-2.84-1.75c-11.84,7.73-21.87,19.21-27.64,32.16-14.43,32.38-4.85,72.85,24.53,93.19.5.35,2.88,1.97,3.25,1.94l2.76-1.64c.09-.15.04-.38-.06-.52-.16-.25-2.63-1.6-3.1-1.92-37.75-25.72-40.93-82.24-7.5-112.96ZM578.51,441.76c.38-.35,1.25-.65,1.19-1.23-.03-.24-1.47-1.76-1.7-1.9-.31-.18-.5-.25-.87-.14-.62.19-5.18,4.86-5.95,5.7-27.04,29.32-26.58,75.85.98,104.67,1.12,1.17,2.62,2.66,3.86,3.66.48.39,1,.94,1.61.92.16,0,2.52-1.85,1.97-2.35-9.05-7.75-16.24-17.99-20.41-29.19-10.6-28.48-2.9-59.84,19.32-80.14ZM585.92,544.97c.31-.91,1.87-1.7,1.57-2.66-20.83-24.95-21.95-61.58-3.55-88.22,1.11-1.61,2.38-3.13,3.55-4.7.31-.58-1.61-2.7-1.99-2.7s-2.31,2.57-2.67,3.06c-20.26,27.27-20.65,65.86.43,92.84.41.53,1.98,2.78,2.66,2.38ZM593.98,533.33c.17-.1,1.75-2.96,1.64-3.44-11.28-20.85-11.21-47.05,0-67.9.06-.62-.4-1.44-.68-1.98-.25-.47-.79-1.6-1.37-1.5-10.17,18.06-12.5,39.96-6.49,59.85,1.58,5.22,3.92,10.15,6.41,14.98.15.03.36.06.49-.01ZM602.07,480.19c-.35-.26-.66,1.55-.69,1.73-1.53,8.32-1.52,18.63-.15,26.97.07.4.41,2.46.76,2.46.33-.2.22-.51.28-.79,1.79-7.98,1.78-17.32.68-25.42-.22-1.59-.68-3.32-.88-4.95Z"/>
  <path class="cls-1" d="M557.3,426.11l-.54.63c-37.47,10.95-58.27,48.61-49.55,86.62,5.2,22.66,21.91,42.05,43.83,50,1.84.67,4.02,1.09,5.77,1.75.22.08.35.23.49.4,0,.45-3.79,1.68-4.43,1.84-1.45.37-2.17.78-3.59,1.24-15.99,5.19-37.57,3.13-52.81-3.68-52.15-23.3-59.93-96.18-13.66-129.93,20.28-14.79,47.05-18.35,70.76-10.26,1.25.43,2.46.99,3.72,1.38ZM518.8,424.5c-7.03.59-14.25,2.7-20.71,5.52-50.92,22.2-57.27,93.89-11.83,125.24,7.96,5.49,21.3,11.54,31.01,12.14.2.01,2.02.13,1.53-.36-17.85-5.78-32.77-18.95-41.39-35.52-10.76-20.67-11.41-46.61-1.67-67.8,7.48-16.26,21.73-30.19,38.23-37.16,1.26-.53,2.79-.86,3.98-1.39.19-.08.76-.46.85-.67ZM534.92,424.68c-4.36.18-8.94,1.26-13.11,2.56-24.05,7.48-42.67,28.11-47.9,52.74-8.25,38.86,14.24,76.9,53.09,86.12,1.15.27,7.69,1.73,8.27,1.3.02-.11-.1-.21-.18-.27-1.4-.91-5.13-1.91-6.93-2.74-39.04-17.99-53.93-66.33-34.11-104.19,7.7-14.71,21.81-27.81,37.28-33.99.78-.31,1.94-.5,2.73-.85.19-.08.76-.46.85-.67ZM551.03,424.68c-4.89.41-9.96,1.61-14.6,3.21-54.55,18.84-64.65,93.63-17.94,127.01,8.03,5.74,21.32,11.49,31.19,12.32.5.04,1.03-.04,1.53,0-.03-.17-.23-.36-.37-.43-1.64-.85-3.91-1.44-5.66-2.22-33.2-14.85-49.57-51.77-41.22-86.95,5.38-22.67,21.32-41.18,42.39-50.73,1.56-.71,3.44-1.07,4.69-2.2Z"/>
  <path class="cls-1" d="M564.26,430.02c-7.36,3.04-14.14,7.66-19.95,13.08-32.82,30.7-29.52,85.85,7.27,111.83,3.92,2.77,8.21,5.17,12.68,6.92.07.3.05.55-.16.79s-2.74,1.35-3.14,1.35c-.58,0-2.6-1.08-3.25-1.41-30.74-15.38-45.39-52.28-37.22-85.27,5.36-21.63,20.28-39.97,40.34-49.57.45-.08,2.97,1.16,3.27,1.49.21.24.24.49.15.79Z"/>
  <path class="cls-1" d="M561.31,442.47c-33.43,30.73-30.26,87.24,7.5,112.96.47.32,2.93,1.67,3.1,1.92.1.15.14.37.06.52l-2.76,1.64c-.37.03-2.74-1.59-3.25-1.94-29.37-20.34-38.95-60.8-24.53-93.19,5.77-12.95,15.81-24.44,27.64-32.16l2.84,1.75v.55c-3.75,2.31-7.35,4.96-10.59,7.95Z"/>
  <path class="cls-1" d="M578.51,441.76c-22.22,20.3-29.92,51.67-19.32,80.14,4.17,11.2,11.35,21.45,20.41,29.19.56.5-1.8,2.34-1.97,2.35-.61.03-1.13-.53-1.61-.92-1.25-1-2.75-2.49-3.86-3.66-27.56-28.82-28.02-75.35-.98-104.67.77-.83,5.33-5.51,5.95-5.7.37-.11.55-.05.87.14.23.13,1.68,1.66,1.7,1.9.06.58-.81.88-1.19,1.23Z"/>
  <path class="cls-1" d="M585.92,544.97c-.68.39-2.24-1.86-2.66-2.38-21.09-26.98-20.69-65.56-.43-92.84.36-.49,2.31-3.06,2.67-3.06s2.3,2.11,1.99,2.7c-1.17,1.57-2.44,3.09-3.55,4.7-18.4,26.64-17.29,63.28,3.55,88.22.3.96-1.26,1.75-1.57,2.66Z"/>
  <path class="cls-1" d="M593.98,533.33c-.13.08-.34.05-.49.01-2.49-4.83-4.83-9.76-6.41-14.98-6.01-19.89-3.68-41.8,6.49-59.85.58-.1,1.12,1.03,1.37,1.5.29.55.75,1.36.68,1.98-11.21,20.85-11.27,47.05,0,67.9.1.49-1.48,3.34-1.64,3.44Z"/>
  <path class="cls-1" d="M602.07,480.19c.2,1.62.66,3.35.88,4.95,1.09,8.09,1.1,17.43-.68,25.42-.06.28.05.59-.28.79-.35,0-.69-2.06-.76-2.46-1.36-8.34-1.37-18.64.15-26.97.03-.17.34-1.99.69-1.73Z"/>
</svg>